<svg width="263" height="70" viewBox="0 0 263 70" fill="none" xmlns="http://www.w3.org/2000/svg">
<path d="M260.925 32.832L261.383 34.597H252.206V41.7378H260.04V43.5043H252.206V50.9029H262.042L261.558 52.7515H250.264V32.832H260.925V32.832ZM248.204 32.8036V34.6522H242.83V52.6947L240.829 52.9809V34.6252H235.196L235.711 32.8036H248.204ZM237.942 52.4954L235.912 52.953L231.965 44.7837H223.416L219.357 52.953L217.443 52.4402L227.762 32.0646L237.942 52.4954ZM224.274 43.0201H231.108L227.735 36.1031L224.274 43.0201ZM220.214 32.8036V34.6522H214.838V52.6947L212.836 52.9809V34.6252H207.206L207.721 32.8036H220.214ZM204.89 36.3023C204.433 35.8193 203.918 35.3079 203.376 34.9651C203.003 34.7384 202.117 34.254 200.859 34.254C199.457 34.254 198.085 34.9098 197.398 36.1323C197.115 36.6168 196.944 37.2146 196.944 37.784C196.944 39.0362 197.744 40.2318 198.855 40.8282C199.516 41.1696 200.488 41.3707 201.172 41.5974C202.546 41.9954 204.204 42.6215 205.234 43.674C205.748 44.1854 206.692 45.4674 206.692 47.4874C206.664 48.2551 206.548 50.0202 205.034 51.4721C204.375 52.1535 202.944 53.2626 200.6 53.2626C198.972 53.2626 197.229 52.6946 195.971 51.6421C195.283 51.0726 194.826 50.4182 194.281 49.6773L195.855 48.4535C195.941 48.5696 196.341 49.2524 196.742 49.7071C198.027 51.2143 199.799 51.329 200.488 51.329C201.172 51.329 203.003 51.2441 204.033 49.4493C204.234 49.1391 204.575 48.4832 204.575 47.5157C204.575 47.0879 204.518 46.2068 203.832 45.381C202.688 43.9587 200.829 43.7052 199.2 43.191C198.571 42.9927 198 42.7632 197.398 42.4218C195.169 41.0846 194.855 38.9796 194.855 38.0121C194.855 37.5574 194.883 36.7315 195.342 35.7343C195.884 34.5118 197.456 32.319 200.888 32.319C202.944 32.319 204.262 33.0882 204.89 33.5443C205.49 33.9692 206.176 34.7087 206.292 34.8248L204.89 36.3023V36.3023ZM191.853 32.832L192.31 34.5971H183.133V41.7379H190.965V43.5043H183.133V50.9029H192.967L192.48 52.7515H181.187V32.832H191.853V32.832ZM162.347 32.6616V50.9592H170.867L170.323 52.8092H160.345V32.9449L162.347 32.6616ZM158.145 52.4954L156.115 52.953L152.17 44.7837H143.621L139.562 52.953L137.646 52.4402L147.966 32.0646L158.145 52.4954ZM144.477 43.0201H151.31L147.937 36.1031L144.477 43.0201ZM136.472 32.832L136.929 34.5971H127.752V41.7379H135.587V43.5043H127.752V50.9029H137.588L137.103 52.7515H125.81V32.832H136.472V32.832ZM115.2 32.7177C117.29 32.9458 118.146 33.1739 119.03 33.7433C119.945 34.3113 121.635 35.7916 121.635 38.6941C121.635 39.6347 121.405 42.3361 118.832 43.7045C117.916 44.1861 116.773 44.4142 116.515 44.5006L123.179 52.2661L121.206 53.1217L112.912 43.0769V52.5522L110.971 52.8653V32.7177H115.2V32.7177ZM112.886 42.9339C113.4 42.9339 113.942 42.9622 114.487 42.9622C116.058 42.9622 117.46 42.7639 118.576 41.54C119.261 40.7708 119.605 39.7481 119.605 38.7225C119.605 37.2139 118.918 35.8483 117.574 35.1074C116.259 34.3978 114.342 34.4827 112.886 34.5111V42.9339V42.9339ZM82.4277 53.0084L75.7928 43.1039V52.4672L72.8211 52.837V32.7461C74.1362 32.7177 75.4213 32.6597 76.7662 32.6597C77.1946 32.6597 78.4243 32.6342 79.6539 32.9742C82.1958 33.7136 84.0004 35.8484 84.0004 38.6078C84.0004 39.462 83.7997 41.625 81.7105 43.0203C81.0259 43.5034 80.3968 43.7045 79.6255 44.0162C80.1947 44.7839 80.7967 45.5517 81.3404 46.3478C81.941 47.2034 82.5416 48.0859 83.1408 48.9656C83.8851 50.0762 84.685 51.1287 85.4563 52.2109L82.4277 53.0084V53.0084ZM75.7657 42.2794C77.3953 42.3078 78.9124 42.3078 80.0809 41.0555C80.9419 40.1447 80.9675 39.0639 80.9675 38.6361C80.9675 38.0397 80.8835 36.5892 79.3679 35.735C78.2791 35.1372 77.0523 35.2222 75.7657 35.2788V42.2794V42.2794ZM68.5035 32.6601L69.1881 35.3926H60.3827V40.971H67.5301V43.6185H60.3827V49.8782H69.9623L69.0742 52.6377H57.3243V32.6601H68.5035V32.6601ZM46.0595 32.4618V49.8782H55.4668L54.3781 52.6674H43.028V32.9179L46.0595 32.4618V32.4618ZM29.0475 32.6902C29.5043 32.6902 29.964 32.7172 30.4208 32.7469C31.3061 32.8319 33.0794 33.0316 34.9936 34.2541C36.5677 35.223 39.5692 37.7275 39.5692 42.6783C39.5692 44.3555 39.2547 45.4094 38.9971 46.0639C38.0535 48.7667 35.8233 51.0161 33.1079 52.012C31.7644 52.495 30.6215 52.5814 29.1627 52.6381H23.9296V32.6902H29.0475V32.6902ZM26.8486 49.992C27.5033 50.0203 28.1893 50.0203 28.8496 49.992C30.1334 49.9353 33.1079 49.7342 35.1943 46.775C35.6241 46.1772 36.5378 44.67 36.5378 42.5919C36.5378 40.2589 35.3096 37.8677 33.3669 36.5886C31.3929 35.2797 29.1627 35.2797 26.8486 35.3349V49.992ZM16.9263 42.2797L22.0441 52.4675L18.9843 53.207L15.4661 46.1497H7.14746L3.63072 53.207L0.770081 52.4406L11.4356 31.6938L16.9263 42.2797ZM8.40557 43.4455H14.1525L11.3502 37.3289L8.40557 43.4455V43.4455Z" fill="#F0F0F0"/>
<path d="M110.356 0.994141C108.701 47.3988 83.3325 59.795 66.923 69.0054C66.923 69.0054 81.2774 65.1198 90.3475 62.8335C98.5295 54.449 112.584 32.9557 110.356 0.994141Z" fill="#B2071B"/>
</svg>
