<svg width="211" height="60" viewBox="0 0 211 60" fill="none" xmlns="http://www.w3.org/2000/svg">
<path fill-rule="evenodd" clip-rule="evenodd" d="M11.0836 31.4686C11.0836 34.9839 9.69842 37.1045 5.365 37.0157H3.69325V25.8987H5.40799C9.07987 25.8987 11.0836 27.5993 11.0836 31.4686ZM14.2933 31.4458C14.2933 26.1856 11.3248 23.466 5.78175 23.466H0.547974V39.4484H5.78055C11.8299 39.4484 14.2933 36.6629 14.2933 31.4458ZM25.1561 27.9966C25.1561 29.3455 24.3012 30.0296 22.6509 30.0296H19.5056V25.8987H22.6067C24.1686 25.8987 25.1561 26.7376 25.1561 27.9966V27.9966ZM28.5665 36.7265C29.0716 35.5563 29.0274 34.1425 28.4137 33.0816C27.7091 31.8875 26.6751 31.5118 25.3997 31.1818C27.05 30.6273 28.3707 29.39 28.3038 27.4457C28.1952 24.3709 25.3365 23.5104 22.6079 23.5104H16.4941V39.4484H22.2354C23.6635 39.4484 24.983 39.3164 26.0171 38.9828C27.2255 38.5627 28.0375 37.8342 28.5665 36.7265V36.7265ZM25.7078 34.6514C25.7078 35.9992 25.0045 37.0817 22.8049 37.0817H19.5056V32.3963L22.9136 32.4191C24.9591 32.3963 25.7078 33.6121 25.7078 34.6514V34.6514ZM50.076 39.4484H46.7122L46.225 35.2719C46.0077 33.9889 46.0721 32.9484 43.6099 32.9484L40.7512 32.9712V39.4484H37.6059V23.4876H44.0063C47.1062 23.5104 49.8551 24.4381 49.9219 27.5993C49.9864 29.7428 48.6693 31.0714 46.6023 31.5778C47.9433 31.8443 48.9559 32.3291 49.3058 33.8557L50.076 39.4484V39.4484ZM46.4913 28.0854C46.4913 26.8264 45.5885 25.8987 43.9622 25.8987H40.7285V30.5841H43.3675C45.0607 30.5841 46.5128 30.0968 46.4913 28.0854ZM62.6786 34.5638L54.6745 34.5854C54.6948 36.3976 55.3324 37.8798 57.3338 37.8798C58.5207 37.8798 59.5333 37.0601 59.5333 35.8024H62.435C62.2607 38.9191 59.753 39.7797 56.9134 39.7593C53.3538 39.6476 51.6821 37.1501 51.6821 33.8125C51.6821 31.0054 53.1329 28.0206 57.3111 28.0206C61.4917 28.0194 62.9198 31.2478 62.6786 34.5638V34.5638ZM59.5333 32.7072C59.6002 31.0918 58.8073 29.8988 57.2239 29.8988C55.576 29.8988 54.8715 31.2478 54.782 32.7072H59.5333ZM75.1021 39.4484H72.487L72.3759 37.8342C71.6953 39.2696 69.9352 39.9573 68.3972 39.8013C66.2418 39.734 64.7683 38.4523 64.7683 36.3316C64.7683 34.673 65.6686 33.6337 66.8353 33.0816C68.4414 32.3291 70.5967 32.4407 72.2028 32.3519C72.3556 30.4953 71.6308 29.7428 70.0033 29.7428C68.9238 29.7668 68.1106 30.3837 68.1763 31.5778H65.2519C65.2961 28.9927 67.2305 28.131 69.8934 28.0854C72.684 28.0626 75.1033 29.1907 75.1033 31.4458L75.1021 39.4484V39.4484ZM72.2207 34.0765C70.703 34.0765 67.781 33.8317 67.7571 36.154C67.7571 37.2149 68.4175 37.767 69.5399 37.8558C72.1359 37.8126 72.2888 35.9104 72.2207 34.0765ZM77.9417 23.4876H80.9771V39.4484H77.9417V23.4876ZM90.0798 23.4876H100.55V25.9407H93.1164V30.0104H100.111V32.3735H93.1164V37.0157H100.859V39.4484H90.0798V23.4876ZM112.582 34.6958C113.064 35.6679 113.044 36.9497 112.449 37.8342C111.414 39.4256 109.17 39.8229 107.433 39.7785C104.972 39.6236 102.772 38.9827 102.881 36.0208H105.873C105.85 37.3025 106.642 37.767 107.787 37.8114C108.886 37.8114 109.987 37.4358 109.987 36.418C109.987 35.6007 109.215 35.2467 108.228 35.0259C107.104 34.7822 106.29 34.673 105.037 34.163C104.026 33.6781 103.035 32.8596 103.035 31.3138C103.035 30.0296 104.026 29.0587 105.32 28.5282C106.201 28.1514 107.281 28.0422 108.202 28.0422C110.294 28.0422 112.558 28.7707 112.428 31.423H109.611C109.611 31.0258 109.522 30.5841 109.193 30.3177C108.577 29.7656 106.685 29.6972 106.09 30.6045C105.43 32.1515 107.479 32.2643 109.743 32.8812C111.173 33.216 112.141 33.8113 112.582 34.6958V34.6958ZM116.188 28.4622V26.7148L119.112 25.1678V28.4622H121.906V30.6057H119.112V35.9344C119.112 37.0145 119.485 37.635 120.586 37.6782C121.004 37.6782 121.376 37.7214 121.927 37.5678V39.4688C120.497 39.668 118.848 40.0449 117.483 39.3152C116.45 38.7619 116.187 37.7898 116.187 36.2416V30.6045H113.833V28.461H116.188V28.4622V28.4622ZM133.914 39.4484H131.296L131.186 37.8342C130.505 39.2696 128.744 39.9573 127.207 39.8013C125.052 39.734 123.576 38.4523 123.576 36.3316C123.576 34.673 124.478 33.6337 125.646 33.0816C127.249 32.3291 129.405 32.4407 131.008 32.3519C131.164 30.4953 130.436 29.7428 128.811 29.7428C127.734 29.7668 126.919 30.3837 126.985 31.5778H124.061C124.102 28.9927 126.04 28.131 128.702 28.0854C131.494 28.0626 133.914 29.1907 133.914 31.4458V39.4484V39.4484ZM131.032 34.0765C129.515 34.0765 126.588 33.8317 126.568 36.154C126.568 37.2149 127.228 37.767 128.35 37.8558C130.946 37.8126 131.1 35.9104 131.032 34.0765ZM137.697 28.4622V26.7148L140.622 25.1678V28.4622H143.416V30.6057H140.622V35.9344C140.622 37.0145 140.994 37.635 142.095 37.6782C142.513 37.6782 142.886 37.7214 143.436 37.5678V39.4688C142.004 39.668 140.355 40.0449 138.99 39.3152C137.96 38.7619 137.696 37.7898 137.696 36.2416V30.6045H135.34V28.461H137.697V28.4622V28.4622ZM155.885 34.5638L147.881 34.5854C147.904 36.3976 148.541 37.8798 150.54 37.8798C151.727 37.8798 152.742 37.0601 152.742 35.8024H155.646C155.469 38.9191 152.962 39.7797 150.123 39.7593C146.562 39.6476 144.889 37.1501 144.889 33.8125C144.889 31.0054 146.34 28.0206 150.52 28.0206C154.699 28.0206 156.127 31.2478 155.885 34.5638V34.5638ZM152.741 32.7072C152.806 31.0918 152.016 29.8988 150.431 29.8988C148.782 29.8988 148.078 31.2478 147.987 32.7072H152.741ZM177.119 5.96663H205.039V34.0273H177.119V5.96663ZM171.751 39.4244H210.41V0.568359H171.751V39.4244ZM202.032 9.79871H195.159L180.125 30.1425H186.945L202.032 9.79871ZM6.77047 52.3224C6.77047 54.3471 6.00385 55.5712 3.6037 55.5208H2.67946V49.112H3.62758C5.66353 49.112 6.77047 50.0925 6.77047 52.3224V52.3224ZM8.54969 52.3092C8.54969 49.2776 6.9066 47.7102 3.83535 47.7102H0.937253V56.9214H3.83416C7.18602 56.9214 8.54969 55.3156 8.54969 52.3092ZM15.9066 54.1058L11.4741 54.119C11.4848 55.1632 11.8383 56.0177 12.9464 56.0177C13.6043 56.0177 14.1656 55.5448 14.1656 54.8199H15.7728C15.6749 56.6166 14.2862 57.1134 12.7159 57.099C10.7421 57.0354 9.81664 55.5976 9.81664 53.6726C9.81664 52.0548 10.6215 50.335 12.9345 50.335C15.2498 50.3338 16.0415 52.1952 15.9066 54.1058V54.1058ZM14.1656 53.0341C14.2002 52.1052 13.7644 51.4175 12.8867 51.4175C11.9732 51.4175 11.5827 52.194 11.535 53.0341H14.1656V53.0341ZM23.1775 56.9214H21.5213L21.5093 55.8761C21.2287 56.7042 20.4621 57.1266 19.5116 57.1266C18.3915 57.1266 17.3312 56.4113 17.3192 54.7047V50.5642H18.9993V54.4623C18.9874 55.3804 19.3277 55.8881 20.1552 55.9013C20.8992 55.9013 21.5081 55.456 21.5081 54.2199V50.5642H23.1751V56.9214H23.1775ZM25.7604 50.5882V49.5825L27.3796 48.6908V50.5882H28.9271V51.8244H27.3796V54.8955C27.3796 55.5208 27.5874 55.8749 28.1963 55.9013C28.4268 55.9013 28.6346 55.9277 28.9403 55.8377V56.9334C28.1486 57.0498 27.2339 57.2646 26.4804 56.8458C25.9084 56.5241 25.7604 55.9649 25.7604 55.0732V51.8244H24.4588V50.5882H25.7604V50.5882ZM35.4422 54.1815C35.7109 54.7419 35.6989 55.4812 35.3705 55.9913C34.7974 56.9094 33.5543 57.1386 32.5931 57.1134C31.2282 57.0234 30.009 56.6538 30.0711 54.9459H31.7285C31.7166 55.6852 32.156 55.9529 32.7889 55.9781C33.3967 55.9781 34.0057 55.7609 34.0057 55.1752C34.0057 54.7035 33.5806 54.5007 33.0325 54.3723C32.4104 54.2319 31.9614 54.1683 31.2664 53.8754C30.7076 53.5958 30.1583 53.1253 30.1583 52.2336C30.1583 51.4943 30.7064 50.9326 31.4252 50.6266C31.9124 50.4094 32.5095 50.347 33.0193 50.347C34.1776 50.347 35.4326 50.767 35.3598 52.2972H33.7991C33.7991 52.068 33.7501 51.8124 33.5674 51.6587C33.2247 51.3395 32.1799 51.3023 31.8503 51.8256C31.4837 52.7173 32.6181 52.7809 33.8719 53.1373C34.6624 53.3269 35.1974 53.6726 35.4422 54.1815V54.1815ZM39.938 50.323C41.2647 50.323 42.6415 50.959 42.6415 52.7041L41.0091 52.6909C41.0091 51.8748 40.584 51.3779 39.7804 51.4175C39.5726 51.4295 39.3541 51.5051 39.1702 51.6071C38.6699 51.9132 38.5134 52.7665 38.5134 53.6198C38.5134 54.5259 38.72 55.4032 39.0974 55.7236C39.3529 55.9781 39.8019 56.0537 40.1923 55.9781C40.8384 55.8629 41.033 55.2016 41.0449 54.6279L42.6403 54.6147C42.663 56.4365 41.2384 57.1254 39.7541 57.0978C37.7683 57.0222 36.8548 55.6708 36.8548 53.6714C36.856 51.6455 37.9641 50.323 39.938 50.323V50.323ZM44.2129 47.7222H45.8918V51.5711C46.3325 50.7538 46.988 50.3974 47.8788 50.3974C48.9977 50.3974 50.0581 51.2759 50.0581 52.5372V56.9202H48.4006V53.0209C48.4006 52.1544 48.0496 51.5819 47.2567 51.5819C46.514 51.5819 45.8811 52.092 45.8811 53.2633V56.9202H44.2129V47.7222V47.7222ZM57.7445 54.1058L53.3096 54.119C53.3228 55.1632 53.6762 56.0177 54.7843 56.0177C55.4423 56.0177 56.0023 55.5448 56.0023 54.8199H57.612C57.5141 56.6166 56.1241 57.1134 54.5527 57.099C52.5812 57.0354 51.6546 55.5976 51.6546 53.6726C51.6546 52.0548 52.457 50.335 54.7724 50.335C57.0866 50.3338 57.8783 52.1952 57.7445 54.1058V54.1058ZM56.0023 53.0341C56.0406 52.1052 55.6023 51.4175 54.7246 51.4175C53.81 51.4175 53.4219 52.194 53.3717 53.0341H56.0023ZM67.904 50.323C67.904 51.0995 67.4264 51.4955 66.5129 51.4955H64.7719V49.1132H66.4902C67.3559 49.112 67.904 49.5945 67.904 50.323ZM69.7907 55.3552C70.0701 54.6795 70.0474 53.8634 69.7071 53.2513C69.3143 52.5648 68.7423 52.3476 68.0366 52.1556C68.9512 51.8376 69.6797 51.1247 69.6474 50.0037C69.5841 48.2323 68.0007 47.7354 66.4902 47.7354H63.1025V56.9202H66.2824C67.0741 56.9202 67.8049 56.8458 68.3781 56.6526C68.6912 56.5485 68.9789 56.3792 69.2223 56.1556C69.4658 55.932 69.6595 55.6593 69.7907 55.3552V55.3552ZM68.2049 54.1562C68.2049 54.9327 67.8168 55.5568 66.5989 55.5568H64.7707V52.8577L66.6597 52.8709C67.793 52.8577 68.2049 53.5574 68.2049 54.1562ZM77.138 56.9214H75.686L75.6263 55.9925C75.2466 56.8206 74.2722 57.2154 73.4208 57.1266C72.2267 57.087 71.4111 56.3489 71.4111 55.1248C71.4111 54.1695 71.9091 53.5706 72.5551 53.2513C73.4435 52.8181 74.6388 52.8817 75.526 52.8301C75.6132 51.7608 75.2096 51.3275 74.3068 51.3275C73.711 51.3395 73.262 51.6983 73.2954 52.3848H71.6774C71.7001 50.8954 72.7736 50.3974 74.2471 50.3722C75.7923 50.359 77.1357 51.0083 77.1357 52.308C77.138 53.8634 77.138 55.3792 77.138 56.9214V56.9214ZM75.5391 53.8238C74.6997 53.8238 73.0769 53.6858 73.0673 55.0216C73.0673 55.6336 73.4339 55.9517 74.0525 56.0009C75.4926 55.9781 75.5762 54.8811 75.5391 53.8238V53.8238ZM78.9495 50.5642H80.6308V51.5831C81.0702 50.755 81.8727 50.3986 82.7754 50.3986C83.7845 50.3986 84.8209 51.0107 84.8209 52.5384V56.9214H83.1384V53.0221C83.154 52.1964 82.7635 51.5831 81.9957 51.5831C81.2386 51.5831 80.6165 52.0932 80.6165 53.2645V56.9214H78.9495V50.5642V50.5642ZM91.1175 56.9214L88.5609 53.2777L90.8739 50.5642H92.8477L90.4476 53.2141L93.2752 56.9214H91.1175V56.9214ZM86.8545 47.7222H88.5119V56.9214H86.8545V47.7222ZM102.324 47.5194C104.539 47.5446 105.954 48.3859 105.954 50.5894H104.076C104.076 49.4049 103.357 48.884 102.36 48.884C100.581 48.884 99.813 50.5534 99.813 52.386C99.813 55.3036 101.519 56.3489 104.114 55.558V53.3918H102.298V51.9924H105.904V56.5914C104.673 56.961 103.749 57.1398 102.507 57.1266C99.6183 57.1002 97.9872 55.5076 97.9752 52.3608C97.9621 49.3773 99.85 47.493 102.324 47.5194V47.5194ZM107.719 56.9214V50.5258H109.386V51.6731C109.729 50.8174 110.448 50.3866 111.457 50.4994V51.9144C110.179 51.7752 109.386 52.4112 109.386 53.6342V56.9214H107.719V56.9214ZM118.669 53.6966C118.669 55.5208 117.83 57.099 115.453 57.099C113.518 57.099 112.289 55.7488 112.289 53.6966C112.289 51.888 113.383 50.3722 115.453 50.3722C117.596 50.3734 118.669 51.888 118.669 53.6966ZM116.939 53.6966C116.939 52.3716 116.489 51.5447 115.453 51.5447C114.626 51.5447 114.029 52.2072 114.017 53.6966C114.017 55.1752 114.6 55.9385 115.453 55.9385C116.393 55.9385 116.939 55.1752 116.939 53.6966ZM125.929 56.9214H124.273L124.256 55.8761C123.977 56.7042 123.212 57.1266 122.26 57.1266C121.139 57.1266 120.079 56.4113 120.07 54.7047V50.5642H121.751V54.4623C121.734 55.3804 122.077 55.8881 122.906 55.9013C123.65 55.9013 124.256 55.456 124.256 54.2199V50.5642H125.928V56.9214H125.929V56.9214ZM133.919 53.7614C133.905 55.5328 133.04 57.177 131.188 57.177C130.386 57.177 129.861 56.9094 129.375 56.3609V59.4321H127.692V50.6662H129.375V51.5711C129.798 50.743 130.57 50.5138 131.286 50.5138C133.089 50.5138 133.943 52.092 133.919 53.7614V53.7614ZM132.235 53.9006C132.25 52.7677 131.981 51.6983 130.764 51.6983C129.644 51.6839 129.276 52.9213 129.276 53.9138C129.276 54.9339 129.545 56.0417 130.739 56.0417C131.883 56.0417 132.223 54.8811 132.235 53.9006Z" fill="#F0F0F0"/>
</svg>
