<svg width="262" height="70" viewBox="0 0 262 70" fill="none" xmlns="http://www.w3.org/2000/svg">
<path d="M260.431 32.832L260.889 34.597H251.712V41.7378H259.545V43.5043H251.712V50.9029H261.548L261.064 52.7515H249.769V32.832H260.431V32.832ZM247.71 32.8036V34.6522H242.336V52.6947L240.335 52.9809V34.6252H234.702L235.217 32.8036H247.71ZM237.448 52.4954L235.417 52.953L231.471 44.7837H222.922L218.863 52.953L216.948 52.4402L227.268 32.0646L237.448 52.4954ZM223.78 43.0201H230.614L227.241 36.1031L223.78 43.0201ZM219.719 32.8036V34.6522H214.344V52.6947L212.342 52.9809V34.6252H206.711L207.227 32.8036H219.719ZM204.396 36.3023C203.939 35.8193 203.424 35.3079 202.881 34.9651C202.508 34.7384 201.623 34.254 200.365 34.254C198.963 34.254 197.591 34.9098 196.904 36.1323C196.621 36.6168 196.45 37.2146 196.45 37.784C196.45 39.0362 197.25 40.2318 198.361 40.8282C199.022 41.1696 199.994 41.3707 200.678 41.5974C202.052 41.9954 203.71 42.6215 204.74 43.674C205.254 44.1854 206.197 45.4674 206.197 47.4874C206.17 48.2551 206.054 50.0202 204.539 51.4721C203.88 52.1535 202.45 53.2626 200.106 53.2626C198.478 53.2626 196.734 52.6946 195.476 51.6421C194.789 51.0726 194.332 50.4182 193.787 49.6773L195.361 48.4535C195.446 48.5696 195.846 49.2524 196.248 49.7071C197.533 51.2143 199.305 51.329 199.994 51.329C200.678 51.329 202.508 51.2441 203.539 49.4493C203.739 49.1391 204.081 48.4832 204.081 47.5157C204.081 47.0879 204.024 46.2068 203.338 45.381C202.194 43.9587 200.335 43.7052 198.706 43.191C198.077 42.9927 197.506 42.7632 196.904 42.4218C194.675 41.0846 194.361 38.9796 194.361 38.0121C194.361 37.5574 194.389 36.7315 194.847 35.7343C195.39 34.5118 196.962 32.319 200.393 32.319C202.45 32.319 203.768 33.0882 204.396 33.5443C204.996 33.9692 205.682 34.7087 205.797 34.8248L204.396 36.3023V36.3023ZM191.358 32.832L191.815 34.5971H182.638V41.7379H190.47V43.5043H182.638V50.9029H192.473L191.986 52.7515H180.693V32.832H191.358V32.832ZM161.853 32.6616V50.9592H170.372L169.829 52.8092H159.851V32.9449L161.853 32.6616ZM157.65 52.4954L155.621 52.953L151.676 44.7837H143.126L139.067 52.953L137.152 52.4402L147.471 32.0646L157.65 52.4954ZM143.983 43.0201H150.816L147.443 36.1031L143.983 43.0201ZM135.978 32.832L136.435 34.5971H127.258V41.7379H135.093V43.5043H127.258V50.9029H137.094L136.609 52.7515H125.315V32.832H135.978V32.832ZM114.706 32.7177C116.795 32.9458 117.652 33.1739 118.536 33.7433C119.451 34.3113 121.14 35.7916 121.14 38.6941C121.14 39.6347 120.911 42.3361 118.338 43.7045C117.422 44.1861 116.279 44.4142 116.021 44.5006L122.685 52.2661L120.712 53.1217L112.418 43.0769V52.5522L110.476 52.8653V32.7177H114.706V32.7177ZM112.392 42.9339C112.906 42.9339 113.448 42.9622 113.993 42.9622C115.564 42.9622 116.966 42.7639 118.082 41.54C118.766 40.7708 119.111 39.7481 119.111 38.7225C119.111 37.2139 118.423 35.8483 117.08 35.1074C115.765 34.3978 113.848 34.4827 112.392 34.5111V42.9339V42.9339ZM81.9335 53.0084L75.2985 43.1039V52.4672L72.3268 52.837V32.7461C73.6419 32.7177 74.927 32.6597 76.272 32.6597C76.7004 32.6597 77.93 32.6342 79.1597 32.9742C81.7015 33.7136 83.5061 35.8484 83.5061 38.6078C83.5061 39.462 83.3055 41.625 81.2162 43.0203C80.5316 43.5034 79.9026 43.7045 79.1312 44.0162C79.7005 44.7839 80.3025 45.5517 80.8462 46.3478C81.4467 47.2034 82.0473 48.0859 82.6465 48.9656C83.3908 50.0762 84.1907 51.1287 84.9621 52.2109L81.9335 53.0084V53.0084ZM75.2715 42.2794C76.901 42.3078 78.4182 42.3078 79.5866 41.0555C80.4477 40.1447 80.4733 39.0639 80.4733 38.6361C80.4733 38.0397 80.3892 36.5892 78.8736 35.735C77.7848 35.1372 76.558 35.2222 75.2715 35.2788V42.2794V42.2794ZM68.0093 32.6601L68.6938 35.3926H59.8885V40.971H67.0358V43.6185H59.8885V49.8782H69.4681L68.58 52.6377H56.83V32.6601H68.0093V32.6601ZM45.5652 32.4618V49.8782H54.9726L53.8838 52.6674H42.5338V32.9179L45.5652 32.4618V32.4618ZM28.5532 32.6902C29.01 32.6902 29.4697 32.7172 29.9266 32.7469C30.8118 32.8319 32.5851 33.0316 34.4993 34.2541C36.0734 35.223 39.0749 37.7275 39.0749 42.6783C39.0749 44.3555 38.7604 45.4094 38.5028 46.0639C37.5592 48.7667 35.3291 51.0161 32.6136 52.012C31.2701 52.495 30.1273 52.5814 28.6685 52.6381H23.4353V32.6902H28.5532V32.6902ZM26.3543 49.992C27.009 50.0203 27.695 50.0203 28.3554 49.992C29.6391 49.9353 32.6136 49.7342 34.7 46.775C35.1298 46.1772 36.0435 44.67 36.0435 42.5919C36.0435 40.2589 34.8153 37.8677 32.8726 36.5886C30.8986 35.2797 28.6685 35.2797 26.3543 35.3349V49.992ZM16.432 42.2797L21.5499 52.4675L18.49 53.207L14.9718 46.1497H6.6532L3.13646 53.207L0.275818 52.4406L10.9413 31.6938L16.432 42.2797ZM7.91131 43.4455H13.6582L10.8559 37.3289L7.91131 43.4455V43.4455Z" fill="#F0F0F0"/>
<path d="M109.862 0.994141C108.207 47.3988 82.8383 59.795 66.4287 69.0054C66.4287 69.0054 80.7832 65.1198 89.8532 62.8335C98.0353 54.449 112.089 32.9557 109.862 0.994141Z" fill="#B2071B"/>
</svg>
