<svg width="210" height="60" viewBox="0 0 210 60" fill="none" xmlns="http://www.w3.org/2000/svg">
<path fill-rule="evenodd" clip-rule="evenodd" d="M10.6736 31.4686C10.6736 34.9839 9.28842 37.1045 4.955 37.0157H3.28325V25.8987H4.99799C8.66987 25.8987 10.6736 27.5993 10.6736 31.4686ZM13.8833 31.4458C13.8833 26.1856 10.9148 23.466 5.37174 23.466H0.13797V39.4484H5.37055C11.4199 39.4484 13.8833 36.6629 13.8833 31.4458ZM24.7461 27.9966C24.7461 29.3455 23.8912 30.0296 22.2409 30.0296H19.0956V25.8987H22.1967C23.7586 25.8987 24.7461 26.7376 24.7461 27.9966V27.9966ZM28.1565 36.7265C28.6616 35.5563 28.6174 34.1425 28.0037 33.0816C27.2991 31.8875 26.265 31.5118 24.9897 31.1818C26.64 30.6273 27.9607 29.39 27.8938 27.4457C27.7851 24.3709 24.9265 23.5104 22.1979 23.5104H16.0841V39.4484H21.8254C23.2535 39.4484 24.573 39.3164 25.6071 38.9828C26.8155 38.5627 27.6275 37.8342 28.1565 36.7265V36.7265ZM25.2978 34.6514C25.2978 35.9992 24.5945 37.0817 22.3949 37.0817H19.0956V32.3963L22.5036 32.4191C24.5491 32.3963 25.2978 33.6121 25.2978 34.6514V34.6514ZM49.666 39.4484H46.3022L45.815 35.2719C45.5977 33.9889 45.6621 32.9484 43.1999 32.9484L40.3412 32.9712V39.4484H37.1959V23.4876H43.5963C46.6962 23.5104 49.4451 24.4381 49.5119 27.5993C49.5764 29.7428 48.2593 31.0714 46.1923 31.5778C47.5333 31.8443 48.5459 32.3291 48.8958 33.8557L49.666 39.4484V39.4484ZM46.0813 28.0854C46.0813 26.8264 45.1785 25.8987 43.5521 25.8987H40.3185V30.5841H42.9575C44.6507 30.5841 46.1028 30.0968 46.0813 28.0854ZM62.2686 34.5638L54.2645 34.5854C54.2848 36.3976 54.9224 37.8798 56.9238 37.8798C58.1107 37.8798 59.1233 37.0601 59.1233 35.8024H62.025C61.8507 38.9191 59.343 39.7797 56.5034 39.7593C52.9438 39.6476 51.2721 37.1501 51.2721 33.8125C51.2721 31.0054 52.7229 28.0206 56.9011 28.0206C61.0817 28.0194 62.5098 31.2478 62.2686 34.5638V34.5638ZM59.1233 32.7072C59.1902 31.0918 58.3973 29.8988 56.8139 29.8988C55.166 29.8988 54.4615 31.2478 54.372 32.7072H59.1233ZM74.6921 39.4484H72.077L71.9659 37.8342C71.2853 39.2696 69.5252 39.9573 67.9872 39.8013C65.8318 39.734 64.3583 38.4523 64.3583 36.3316C64.3583 34.673 65.2586 33.6337 66.4253 33.0816C68.0314 32.3291 70.1867 32.4407 71.7928 32.3519C71.9456 30.4953 71.2208 29.7428 69.5932 29.7428C68.5138 29.7668 67.7006 30.3837 67.7663 31.5778H64.8419C64.8861 28.9927 66.8205 28.131 69.4834 28.0854C72.274 28.0626 74.6933 29.1907 74.6933 31.4458L74.6921 39.4484V39.4484ZM71.8107 34.0765C70.293 34.0765 67.371 33.8317 67.3471 36.154C67.3471 37.2149 68.0075 37.767 69.1299 37.8558C71.7259 37.8126 71.8788 35.9104 71.8107 34.0765ZM77.5317 23.4876H80.5671V39.4484H77.5317V23.4876ZM89.6698 23.4876H100.14V25.9407H92.7064V30.0104H99.7015V32.3735H92.7064V37.0157H100.449V39.4484H89.6698V23.4876ZM112.172 34.6958C112.654 35.6679 112.634 36.9497 112.039 37.8342C111.004 39.4256 108.76 39.8229 107.023 39.7785C104.562 39.6236 102.362 38.9827 102.471 36.0208H105.463C105.44 37.3025 106.232 37.767 107.377 37.8114C108.476 37.8114 109.577 37.4358 109.577 36.418C109.577 35.6007 108.805 35.2467 107.818 35.0259C106.694 34.7822 105.88 34.673 104.627 34.163C103.616 33.6781 102.625 32.8596 102.625 31.3138C102.625 30.0296 103.616 29.0587 104.91 28.5282C105.791 28.1514 106.871 28.0422 107.792 28.0422C109.884 28.0422 112.148 28.7707 112.018 31.423H109.201C109.201 31.0258 109.112 30.5841 108.783 30.3177C108.167 29.7656 106.275 29.6972 105.68 30.6045C105.02 32.1515 107.069 32.2643 109.333 32.8812C110.763 33.216 111.731 33.8113 112.172 34.6958V34.6958ZM115.778 28.4622V26.7148L118.702 25.1678V28.4622H121.496V30.6057H118.702V35.9344C118.702 37.0145 119.075 37.635 120.176 37.6782C120.594 37.6782 120.966 37.7214 121.517 37.5678V39.4688C120.087 39.668 118.438 40.0449 117.073 39.3152C116.04 38.7619 115.777 37.7898 115.777 36.2416V30.6045H113.423V28.461H115.778V28.4622V28.4622ZM133.504 39.4484H130.886L130.776 37.8342C130.095 39.2696 128.334 39.9573 126.797 39.8013C124.642 39.734 123.166 38.4523 123.166 36.3316C123.166 34.673 124.068 33.6337 125.236 33.0816C126.839 32.3291 128.995 32.4407 130.598 32.3519C130.754 30.4953 130.026 29.7428 128.401 29.7428C127.324 29.7668 126.509 30.3837 126.575 31.5778H123.651C123.692 28.9927 125.63 28.131 128.292 28.0854C131.084 28.0626 133.504 29.1907 133.504 31.4458V39.4484V39.4484ZM130.622 34.0765C129.105 34.0765 126.178 33.8317 126.158 36.154C126.158 37.2149 126.818 37.767 127.94 37.8558C130.536 37.8126 130.69 35.9104 130.622 34.0765ZM137.287 28.4622V26.7148L140.212 25.1678V28.4622H143.006V30.6057H140.212V35.9344C140.212 37.0145 140.584 37.635 141.685 37.6782C142.103 37.6782 142.476 37.7214 143.026 37.5678V39.4688C141.594 39.668 139.945 40.0449 138.58 39.3152C137.55 38.7619 137.286 37.7898 137.286 36.2416V30.6045H134.93V28.461H137.287V28.4622V28.4622ZM155.475 34.5638L147.471 34.5854C147.494 36.3976 148.131 37.8798 150.13 37.8798C151.317 37.8798 152.332 37.0601 152.332 35.8024H155.236C155.059 38.9191 152.551 39.7797 149.713 39.7593C146.152 39.6476 144.479 37.1501 144.479 33.8125C144.479 31.0054 145.93 28.0206 150.11 28.0206C154.289 28.0206 155.717 31.2478 155.475 34.5638V34.5638ZM152.331 32.7072C152.396 31.0918 151.606 29.8988 150.021 29.8988C148.372 29.8988 147.668 31.2478 147.577 32.7072H152.331ZM176.709 5.96663H204.629V34.0273H176.709V5.96663ZM171.341 39.4244H210V0.568359H171.341V39.4244ZM201.622 9.79871H194.749L179.715 30.1425H186.535L201.622 9.79871ZM6.36047 52.3224C6.36047 54.3471 5.59385 55.5712 3.19369 55.5208H2.26945V49.112H3.21757C5.25353 49.112 6.36047 50.0925 6.36047 52.3224V52.3224ZM8.13969 52.3092C8.13969 49.2776 6.49659 47.7102 3.42535 47.7102H0.527249V56.9214H3.42415C6.77601 56.9214 8.13969 55.3156 8.13969 52.3092ZM15.4966 54.1058L11.0641 54.119C11.0748 55.1632 11.4283 56.0177 12.5364 56.0177C13.1943 56.0177 13.7556 55.5448 13.7556 54.8199H15.3628C15.2649 56.6166 13.8762 57.1134 12.3059 57.099C10.3321 57.0354 9.40664 55.5976 9.40664 53.6726C9.40664 52.0548 10.2115 50.335 12.5245 50.335C14.8398 50.3338 15.6315 52.1952 15.4966 54.1058V54.1058ZM13.7556 53.0341C13.7902 52.1052 13.3544 51.4175 12.4767 51.4175C11.5632 51.4175 11.1727 52.194 11.125 53.0341H13.7556V53.0341ZM22.7675 56.9214H21.1113L21.0993 55.8761C20.8187 56.7042 20.0521 57.1266 19.1016 57.1266C17.9815 57.1266 16.9212 56.4113 16.9092 54.7047V50.5642H18.5893V54.4623C18.5774 55.3804 18.9177 55.8881 19.7452 55.9013C20.4891 55.9013 21.0981 55.456 21.0981 54.2199V50.5642H22.7651V56.9214H22.7675ZM25.3504 50.5882V49.5825L26.9696 48.6908V50.5882H28.5171V51.8244H26.9696V54.8955C26.9696 55.5208 27.1773 55.8749 27.7863 55.9013C28.0168 55.9013 28.2246 55.9277 28.5303 55.8377V56.9334C27.7386 57.0498 26.8239 57.2646 26.0704 56.8458C25.4984 56.5241 25.3504 55.9649 25.3504 55.0732V51.8244H24.0488V50.5882H25.3504V50.5882ZM35.0322 54.1815C35.3009 54.7419 35.2889 55.4812 34.9605 55.9913C34.3874 56.9094 33.1443 57.1386 32.183 57.1134C30.8182 57.0234 29.599 56.6538 29.6611 54.9459H31.3185C31.3066 55.6852 31.746 55.9529 32.3789 55.9781C32.9867 55.9781 33.5957 55.7609 33.5957 55.1752C33.5957 54.7035 33.1706 54.5007 32.6225 54.3723C32.0003 54.2319 31.5514 54.1683 30.8564 53.8754C30.2976 53.5958 29.7483 53.1253 29.7483 52.2336C29.7483 51.4943 30.2964 50.9326 31.0152 50.6266C31.5024 50.4094 32.0995 50.347 32.6093 50.347C33.7676 50.347 35.0226 50.767 34.9498 52.2972H33.3891C33.3891 52.068 33.3401 51.8124 33.1574 51.6587C32.8147 51.3395 31.7699 51.3023 31.4403 51.8256C31.0737 52.7173 32.2081 52.7809 33.4619 53.1373C34.2524 53.3269 34.7874 53.6726 35.0322 54.1815V54.1815ZM39.528 50.323C40.8547 50.323 42.2315 50.959 42.2315 52.7041L40.5991 52.6909C40.5991 51.8748 40.174 51.3779 39.3704 51.4175C39.1626 51.4295 38.9441 51.5051 38.7602 51.6071C38.2599 51.9132 38.1034 52.7665 38.1034 53.6198C38.1034 54.5259 38.31 55.4032 38.6873 55.7236C38.9429 55.9781 39.3919 56.0537 39.7823 55.9781C40.4284 55.8629 40.623 55.2016 40.6349 54.6279L42.2303 54.6147C42.253 56.4365 40.8284 57.1254 39.3441 57.0978C37.3583 57.0222 36.4448 55.6708 36.4448 53.6714C36.446 51.6455 37.5541 50.323 39.528 50.323V50.323ZM43.8029 47.7222H45.4818V51.5711C45.9224 50.7538 46.578 50.3974 47.4688 50.3974C48.5877 50.3974 49.6481 51.2759 49.6481 52.5372V56.9202H47.9906V53.0209C47.9906 52.1544 47.6396 51.5819 46.8467 51.5819C46.104 51.5819 45.4711 52.092 45.4711 53.2633V56.9202H43.8029V47.7222V47.7222ZM57.3345 54.1058L52.8996 54.119C52.9128 55.1632 53.2662 56.0177 54.3743 56.0177C55.0323 56.0177 55.5923 55.5448 55.5923 54.8199H57.202C57.1041 56.6166 55.7141 57.1134 54.1427 57.099C52.1712 57.0354 51.2446 55.5976 51.2446 53.6726C51.2446 52.0548 52.047 50.335 54.3624 50.335C56.6766 50.3338 57.4683 52.1952 57.3345 54.1058V54.1058ZM55.5923 53.0341C55.6305 52.1052 55.1923 51.4175 54.3146 51.4175C53.4 51.4175 53.0119 52.194 52.9617 53.0341H55.5923ZM67.494 50.323C67.494 51.0995 67.0164 51.4955 66.1029 51.4955H64.3619V49.1132H66.0802C66.9459 49.112 67.494 49.5945 67.494 50.323ZM69.3807 55.3552C69.6601 54.6795 69.6374 53.8634 69.2971 53.2513C68.9042 52.5648 68.3323 52.3476 67.6266 52.1556C68.5412 51.8376 69.2697 51.1247 69.2374 50.0037C69.1741 48.2323 67.5907 47.7354 66.0802 47.7354H62.6925V56.9202H65.8724C66.6641 56.9202 67.3949 56.8458 67.9681 56.6526C68.2812 56.5485 68.5689 56.3792 68.8123 56.1556C69.0558 55.932 69.2495 55.6593 69.3807 55.3552V55.3552ZM67.7949 54.1562C67.7949 54.9327 67.4068 55.5568 66.1889 55.5568H64.3607V52.8577L66.2497 52.8709C67.383 52.8577 67.7949 53.5574 67.7949 54.1562ZM76.728 56.9214H75.276L75.2163 55.9925C74.8366 56.8206 73.8622 57.2154 73.0108 57.1266C71.8167 57.087 71.0011 56.3489 71.0011 55.1248C71.0011 54.1695 71.499 53.5706 72.1451 53.2513C73.0335 52.8181 74.2288 52.8817 75.116 52.8301C75.2032 51.7608 74.7996 51.3275 73.8968 51.3275C73.301 51.3395 72.852 51.6983 72.8854 52.3848H71.2674C71.2901 50.8954 72.3636 50.3974 73.8371 50.3722C75.3823 50.359 76.7257 51.0083 76.7257 52.308C76.728 53.8634 76.728 55.3792 76.728 56.9214V56.9214ZM75.1291 53.8238C74.2897 53.8238 72.6669 53.6858 72.6573 55.0216C72.6573 55.6336 73.0239 55.9517 73.6425 56.0009C75.0826 55.9781 75.1662 54.8811 75.1291 53.8238V53.8238ZM78.5395 50.5642H80.2208V51.5831C80.6602 50.755 81.4627 50.3986 82.3654 50.3986C83.3744 50.3986 84.4109 51.0107 84.4109 52.5384V56.9214H82.7284V53.0221C82.744 52.1964 82.3535 51.5831 81.5857 51.5831C80.8286 51.5831 80.2065 52.0932 80.2065 53.2645V56.9214H78.5395V50.5642V50.5642ZM90.7075 56.9214L88.1509 53.2777L90.4639 50.5642H92.4377L90.0376 53.2141L92.8652 56.9214H90.7075V56.9214ZM86.4445 47.7222H88.1019V56.9214H86.4445V47.7222ZM101.914 47.5194C104.129 47.5446 105.544 48.3859 105.544 50.5894H103.666C103.666 49.4049 102.947 48.884 101.95 48.884C100.171 48.884 99.403 50.5534 99.403 52.386C99.403 55.3036 101.109 56.3489 103.704 55.558V53.3918H101.888V51.9924H105.494V56.5914C104.263 56.961 103.339 57.1398 102.097 57.1266C99.2083 57.1002 97.5772 55.5076 97.5652 52.3608C97.5521 49.3773 99.44 47.493 101.914 47.5194V47.5194ZM107.309 56.9214V50.5258H108.976V51.6731C109.319 50.8174 110.038 50.3866 111.047 50.4994V51.9144C109.769 51.7752 108.976 52.4112 108.976 53.6342V56.9214H107.309V56.9214ZM118.259 53.6966C118.259 55.5208 117.42 57.099 115.043 57.099C113.108 57.099 111.879 55.7488 111.879 53.6966C111.879 51.888 112.973 50.3722 115.043 50.3722C117.186 50.3734 118.259 51.888 118.259 53.6966ZM116.529 53.6966C116.529 52.3716 116.079 51.5447 115.043 51.5447C114.216 51.5447 113.619 52.2072 113.607 53.6966C113.607 55.1752 114.19 55.9385 115.043 55.9385C115.983 55.9385 116.529 55.1752 116.529 53.6966ZM125.519 56.9214H123.863L123.846 55.8761C123.567 56.7042 122.801 57.1266 121.85 57.1266C120.729 57.1266 119.669 56.4113 119.66 54.7047V50.5642H121.341V54.4623C121.324 55.3804 121.667 55.8881 122.496 55.9013C123.24 55.9013 123.846 55.456 123.846 54.2199V50.5642H125.518V56.9214H125.519V56.9214ZM133.509 53.7614C133.495 55.5328 132.63 57.177 130.778 57.177C129.976 57.177 129.451 56.9094 128.965 56.3609V59.4321H127.282V50.6662H128.965V51.5711C129.388 50.743 130.16 50.5138 130.876 50.5138C132.679 50.5138 133.533 52.092 133.509 53.7614V53.7614ZM131.825 53.9006C131.84 52.7677 131.571 51.6983 130.354 51.6983C129.234 51.6839 128.866 52.9213 128.866 53.9138C128.866 54.9339 129.135 56.0417 130.329 56.0417C131.473 56.0417 131.813 54.8811 131.825 53.9006Z" fill="#F0F0F0"/>
</svg>
