<svg width="41" height="40" viewBox="0 0 41 40" fill="none" xmlns="http://www.w3.org/2000/svg">
<path d="M31.92 0H8.08C3.61498 0 0 3.61498 0 8.08V31.925C0 36.385 3.61498 40 8.08 40H31.925C36.385 40 40.005 36.385 40.005 31.92V8.08C40 3.61498 36.385 0 31.92 0Z" fill="url(#paint0_linear_97_527)"/>
<path d="M19.83 9.1901L20.64 7.79008C21.14 6.91505 22.255 6.62009 23.13 7.12007C24.0051 7.62006 24.3 8.73504 23.8 9.61007L15.995 23.1201H21.64C23.47 23.1201 24.495 25.2702 23.7 26.7601H7.15007C6.1401 26.7601 5.33008 25.9501 5.33008 24.9401C5.33008 23.9301 6.1401 23.1201 7.15007 23.1201H11.7901L17.7301 12.8251L15.8751 9.60507C15.3752 8.73004 15.6701 7.62506 16.5452 7.11507C17.4202 6.61509 18.5252 6.91004 19.0352 7.78508L19.83 9.1901Z" fill="white"/>
<path d="M12.81 28.6349L11.06 31.6699C10.56 32.5449 9.44502 32.8399 8.56999 32.3399C7.69496 31.8399 7.4 30.725 7.89998 29.8499L9.19999 27.6C10.6699 27.145 11.8649 27.4949 12.81 28.6349Z" fill="white"/>
<path d="M27.88 23.13H32.615C33.6249 23.13 34.435 23.94 34.435 24.95C34.435 25.9599 33.6249 26.77 32.615 26.77H29.985L31.7599 29.8499C32.2599 30.725 31.965 31.83 31.0899 32.3399C30.2149 32.8399 29.1099 32.545 28.5999 31.6699C25.61 26.4849 23.3649 22.605 21.875 20.02C20.3499 17.39 21.44 14.7499 22.515 13.855C23.71 15.905 25.495 19 27.88 23.13Z" fill="white"/>
<defs>
<linearGradient id="paint0_linear_97_527" x1="20.0025" y1="0" x2="20.0025" y2="40" gradientUnits="userSpaceOnUse">
<stop stop-color="#00BFFC"/>
<stop offset="1" stop-color="#0073F6"/>
</linearGradient>
</defs>
</svg>
