<svg width="56" height="56" viewBox="0 0 56 56" fill="none" xmlns="http://www.w3.org/2000/svg">
<path d="M32.982 0C20.2792 0 9.98154 10.2977 9.98154 22.9994C9.98154 35.7011 20.2792 45.9987 32.9809 45.9987C45.6826 45.9987 55.9803 35.7011 55.9803 22.9994C55.9803 10.2977 45.6837 0 32.982 0Z" fill="#ED912E"/>
<path d="M22.9994 10.001C10.2977 10.001 0 20.2975 0 33.0004C0 45.7032 10.2977 55.9997 22.9994 55.9997C35.7011 55.9997 45.9987 45.7021 45.9987 33.0004C45.9987 20.2986 35.7022 10.001 22.9994 10.001ZM28.1652 34.3905C27.7605 34.8739 27.1786 35.5116 26.3452 36.3461C25.5106 37.1807 24.873 37.7614 24.3895 38.1661C23.5845 38.8399 22.4131 38.8399 21.6092 38.1661C21.1258 37.7614 20.4881 37.1796 19.6536 36.3461C18.8191 35.5116 18.2383 34.8739 17.8336 34.3905C17.1598 33.5855 17.1598 32.4141 17.8336 31.6102C18.2383 31.1268 18.8202 30.4891 19.6536 29.6546C20.487 28.82 21.1258 28.2393 21.6092 27.8346C22.4142 27.1608 23.5856 27.1608 24.3895 27.8346C24.873 28.2393 25.5106 28.8211 26.3452 29.6546C27.1786 30.4891 27.7605 31.1268 28.1652 31.6102C28.8389 32.4152 28.8389 33.5866 28.1652 34.3905Z" fill="#FAAB48"/>
<path d="M42.63 21.0098C38.5886 14.4068 31.3086 10.0001 23.0005 10.0001C10.2977 10.0012 0 20.2978 0 33.0006C0 35.9472 0.554531 38.7647 1.56516 41.3536C5.17891 42.8793 9.15031 43.7237 13.3197 43.7237C27.4258 43.7237 39.2777 34.0703 42.63 21.0098ZM17.8347 31.6104C18.2394 31.127 18.8213 30.4893 19.6547 29.6548C20.4881 28.8203 21.1269 28.2395 21.6103 27.8348C22.4153 27.1611 23.5867 27.1611 24.3906 27.8348C24.8741 28.2395 25.5117 28.8214 26.3463 29.6548C27.1797 30.4893 27.7616 31.127 28.1662 31.6104C28.84 32.4154 28.84 33.5868 28.1662 34.3907C27.7616 34.8742 27.1797 35.5118 26.3463 36.3464C25.5117 37.1809 24.8741 37.7617 24.3906 38.1664C23.5856 38.8401 22.4142 38.8401 21.6103 38.1664C21.1269 37.7617 20.4892 37.1798 19.6547 36.3464C18.8202 35.5118 18.2394 34.8742 17.8347 34.3907C17.1609 33.5857 17.1609 32.4143 17.8347 31.6104Z" fill="#F8C358"/>
</svg>
