<svg width="56" height="57" viewBox="0 0 56 57" fill="none" xmlns="http://www.w3.org/2000/svg">
<path d="M37.1835 48.3521C33.424 48.4462 26.0401 47.8616 23.626 47.2879C21.9816 46.9413 20.4346 45.9835 19.2696 44.6513C18.1189 43.3524 17.3956 41.731 17.1978 40.007C17.1978 39.9893 17.1978 39.9727 17.1978 39.955C17.0721 38.7119 17.0333 37.4616 17.0815 36.2132C17.0815 36.2132 16.9896 35.1058 17.1978 33.1125C17.1978 33.0959 17.1978 33.0782 17.1978 33.0616C17.3733 31.4204 18.1075 29.8895 19.2774 28.7252C20.4536 27.5484 21.9948 26.8065 23.6482 26.6212C26.0689 26.3654 33.4362 26.2247 37.1813 26.2258C40.9264 26.2269 46.9361 26.3643 49.3623 26.6212C51.0158 26.806 52.5572 27.548 53.7331 28.7252C54.9034 29.89 55.6377 31.4219 55.8127 33.0638C55.8127 33.0804 55.8127 33.0982 55.8183 33.1148C56.0275 35.1147 55.9988 36.2154 55.9988 36.2154C56.0046 37.4675 55.9444 38.7191 55.8183 39.9649C55.8183 39.9815 55.8183 39.9993 55.8127 40.0159C55.6153 41.7401 54.8923 43.3618 53.7419 44.6613C52.5759 45.9901 51.03 46.9502 49.3845 47.2968C46.9593 47.8394 40.9375 48.3776 37.1835 48.3521Z" fill="#4193D2"/>
<path d="M48.2272 26.5247C45.3934 26.3287 40.4302 26.2224 37.1768 26.2235C33.4317 26.2235 26.0644 26.363 23.6437 26.6188C21.9903 26.8042 20.449 27.5461 19.2729 28.7228C18.103 29.8871 17.3688 31.4181 17.1932 33.0593V33.1102C16.9851 35.1035 17.077 36.2109 17.077 36.2109C17.0288 37.4593 17.0676 38.7096 17.1932 39.9526V40.0047C17.293 40.9396 17.5553 41.8499 17.9684 42.6945C19.8455 43.1091 21.7623 43.3174 23.6846 43.3157C34.8579 43.3157 44.4101 36.3526 48.2272 26.5247Z" fill="#48A4DF"/>
<path d="M36.2776 23.4119C42.7426 23.4119 47.9836 18.171 47.9836 11.706C47.9836 5.24094 42.7426 0 36.2776 0C29.8126 0 24.5717 5.24094 24.5717 11.706C24.5717 18.171 29.8126 23.4119 36.2776 23.4119Z" fill="#F5B48B"/>
<path d="M20.1222 56.7047C16.3572 56.7977 8.9788 56.2141 6.56474 55.6405C4.9203 55.2939 3.37331 54.336 2.20837 53.0038C1.05746 51.7046 0.334116 50.0828 0.136484 48.3584C0.136484 48.3418 0.136484 48.3252 0.136484 48.3075C0.0108565 47.0641 -0.0279953 45.8134 0.0202106 44.5646C0.0202106 44.5646 -0.0717008 43.4628 0.136484 41.464C0.136484 41.4474 0.136484 41.4297 0.136484 41.413C0.312003 39.7719 1.04622 38.2409 2.21612 37.0766C3.39196 35.8995 4.93337 35.1575 6.58689 34.9726C9.00759 34.7168 16.3749 34.5762 20.12 34.5773C23.8651 34.5784 29.8748 34.7157 32.301 34.9726C33.9546 35.1575 35.496 35.8995 36.6718 37.0766C37.8422 38.2415 38.5764 39.7733 38.7514 41.4153C38.7514 41.4319 38.7514 41.4485 38.757 41.4651C38.9663 43.4661 38.9375 44.5657 38.9375 44.5657C38.9433 45.8179 38.8831 47.0695 38.757 48.3153C38.757 48.3319 38.757 48.3485 38.7514 48.3662C38.5549 50.0923 37.8319 51.7161 36.6807 53.0171C35.5146 54.346 33.9687 55.3061 32.3232 55.6527C29.9025 56.1919 23.8806 56.7301 20.1222 56.7047Z" fill="#FAAB48"/>
<path d="M31.1704 34.8769C28.3367 34.6809 23.3734 34.5757 20.12 34.5768C16.3749 34.5768 9.00759 34.7163 6.58689 34.9721C4.93337 35.157 3.39196 35.899 2.21612 37.0761C1.04599 38.2407 0.311757 39.7721 0.136484 41.4137V41.4646C-0.0717008 43.4634 0.0202106 44.5652 0.0202106 44.5652C-0.0279953 45.814 0.0108565 47.0647 0.136484 48.3081V48.3591C0.23609 49.2944 0.498424 50.205 0.91164 51.05C2.78798 51.4648 4.704 51.6735 6.62565 51.6723C17.8045 51.6723 27.3533 44.7048 31.1704 34.8769Z" fill="#F8C358"/>
<path d="M19.2209 31.7637C25.6859 31.7637 30.9268 26.5228 30.9268 20.0578C30.9268 13.5927 25.6859 8.35181 19.2209 8.35181C12.7558 8.35181 7.51489 13.5927 7.51489 20.0578C7.51489 26.5228 12.7558 31.7637 19.2209 31.7637Z" fill="#FFC49B"/>
</svg>
