<svg width="49" height="56" viewBox="0 0 49 56" fill="none" xmlns="http://www.w3.org/2000/svg">
<path d="M7.17391 17.9321C6.19172 20.7956 6.17094 30.8548 6.19281 34.3504C6.17094 37.846 6.44766 44.2718 6.73641 46.3937C7.33359 50.9098 11.1519 54.8429 15.6636 55.4849C17.9637 55.7999 20.8108 55.999 24.1336 56.0001C27.4564 56.0001 30.3034 55.801 32.6036 55.4849C37.1153 54.8429 40.9336 50.9098 41.5308 46.3937C41.8195 44.2718 42.0962 37.846 42.0744 34.3504C42.0962 30.8548 42.3227 19.1615 41.0933 17.9321H7.17391Z" fill="#4193D2"/>
<path d="M36.073 18.1671C36.2885 19.9948 36.5247 30.4948 36.5116 34.3502C36.5247 38.2057 36.2885 44.3307 36.073 46.1584C35.8466 48.1348 34.241 49.7699 32.2722 50.0116C30.0924 50.2752 27.3558 50.4371 24.1336 50.4371C20.9103 50.4371 18.1738 50.2752 15.995 50.0116C14.0263 49.7699 12.4196 48.1348 12.1942 46.1584C11.9788 44.3307 11.7425 38.2057 11.7557 34.3502C11.7425 30.4948 11.9788 19.9948 12.1942 18.1671H36.0741H36.073Z" fill="#87D7FC"/>
<path d="M36.3771 25.4307C36.2928 22.121 36.1813 19.0749 36.0741 18.1671H12.1931C11.9777 19.9948 11.7414 30.4948 11.7546 34.3502C11.748 36.4229 11.8125 39.1507 11.9077 41.5154C22.5477 40.7104 31.6488 34.4027 36.3771 25.4318V25.4307Z" fill="#97DDFC"/>
<path d="M28.4604 44.6011H19.8067C18.839 44.6011 18.0545 45.3856 18.0545 46.3533C18.0545 47.321 18.839 48.1054 19.8067 48.1054H28.4604C29.4281 48.1054 30.2126 47.321 30.2126 46.3533C30.2126 45.3856 29.4281 44.6011 28.4604 44.6011Z" fill="white"/>
<path d="M48.2705 12.133V12.1166C48.2716 11.8781 48.1939 11.6353 48.0189 11.4144C47.9533 11.3302 47.8833 11.2481 47.81 11.1672C47.4316 10.7461 46.9831 10.2703 46.4505 9.72891C45.5339 8.79922 44.3636 7.67703 42.887 6.31641C40.5453 4.16172 38.7559 2.59875 37.462 1.51922C36.3803 0.620156 35.1816 0.137812 34.0528 0.111562C34.0506 0.111562 34.0517 0.111562 34.0528 0.111562H34.0506C34.0506 0.111562 34.0528 0.111562 34.0506 0.111562C27.4411 -0.0371875 20.8316 -0.0371875 14.222 0.111562C14.2198 0.111562 14.2209 0.111562 14.222 0.111562H14.2198C14.2198 0.111562 14.222 0.111562 14.2198 0.111562C13.0911 0.138906 11.8923 0.620156 10.8106 1.51922C9.51672 2.59875 7.72734 4.16172 5.38562 6.31641C3.90797 7.67703 2.73766 8.79922 1.82219 9.72891C1.28953 10.2692 0.841094 10.7461 0.462656 11.1672C0.389375 11.2481 0.320469 11.3312 0.25375 11.4144C0.07875 11.6342 0.0010938 11.877 0.00218755 12.1166H0C0 12.133 0.0010938 12.1494 0.00218755 12.1658V12.168C0.0678125 13.4783 0.207813 14.7875 0.42 16.0978C0.744844 18.3553 3.12375 20.3077 5.355 20.4127C6.6325 20.4684 7.63875 19.8997 8.24141 18.9623C8.49297 18.5708 9.10219 18.5872 9.47297 18.9973C10.3644 19.9795 11.6003 20.6358 12.8756 20.6686C14.152 20.7014 15.2162 20.0998 15.8911 19.133C16.1722 18.7294 16.7814 18.737 17.1227 19.1505C17.9419 20.1392 19.1209 20.7856 20.3962 20.7966C21.6727 20.8075 22.7937 20.1797 23.5408 19.1953C23.8514 18.7841 24.4606 18.7841 24.7723 19.1953C25.5194 20.1797 26.6405 20.8075 27.9169 20.7955C29.1856 20.7845 30.3581 20.1447 31.1773 19.1647C31.5164 18.7567 32.1212 18.7491 32.4012 19.1472C33.0761 20.1053 34.1359 20.7003 35.4058 20.6675C36.6811 20.6347 37.917 19.9784 38.8084 18.9963C39.1781 18.5861 39.7884 18.5708 40.04 18.9612C40.6427 19.8986 41.6489 20.4673 42.9264 20.4116C45.1577 20.3077 47.5366 18.3542 47.8614 16.0967C48.0714 14.7973 48.2092 13.4969 48.2759 12.1975C48.2781 12.1756 48.2792 12.1548 48.2792 12.133H48.2705Z" fill="#E03757"/>
<path d="M0.26144 11.4143C0.0864404 11.6342 0.00878423 11.877 0.00987798 12.1165H0.00769043C0.00769043 12.1329 0.00878423 12.1493 0.00987798 12.1657V12.1679C0.075503 13.4782 0.215503 14.7874 0.42769 16.0977C0.752534 18.3552 3.13144 20.3076 5.36269 20.4126C6.64019 20.4684 7.64644 19.8996 8.2491 18.9623C8.50066 18.5707 9.10988 18.5871 9.48066 18.9973C10.3721 19.9795 11.608 20.6357 12.8833 20.6685C14.1597 20.7013 15.2239 20.0998 15.8988 19.1329C16.1799 18.7293 16.7891 18.737 17.1303 19.1504C17.9496 20.1392 19.1286 20.7856 20.4039 20.7965C21.6803 20.8074 22.8014 20.1796 23.5485 19.1952C23.8591 18.784 24.4683 18.784 24.78 19.1952C25.5271 20.1796 26.6482 20.8074 27.9246 20.7954C29.1933 20.7845 30.3658 20.1446 31.185 19.1646C31.5241 18.7566 32.1289 18.749 32.4089 19.1471C33.0838 20.1052 34.1436 20.7002 35.4135 20.6674C36.6888 20.6346 37.9247 19.9784 38.8161 18.9962C39.1858 18.586 39.7961 18.5707 40.0477 18.9612C40.6503 19.8985 41.6566 20.4673 42.9341 20.4115C45.1653 20.3076 47.5443 18.3541 47.8691 16.0966C48.0791 14.7973 48.2169 13.4968 48.2836 12.1974C48.2858 12.1756 48.2869 12.1548 48.2869 12.1329V12.1165C48.288 11.8781 48.2103 11.6352 48.0353 11.4143H0.26144Z" fill="#F04760"/>
</svg>
