<svg width="24" height="24" viewBox="0 0 24 24" fill="none" xmlns="http://www.w3.org/2000/svg">
<path d="M12 24C18.6274 24 24 18.6274 24 12C24 5.37258 18.6274 0 12 0C5.37258 0 0 5.37258 0 12C0 18.6274 5.37258 24 12 24Z" fill="url(#paint0_linear_160_91)"/>
<path d="M14.5493 5.3335H9.45602C7.18402 5.3335 5.33868 7.17883 5.33868 9.45083V14.5442C5.33868 16.8162 7.18402 18.6615 9.45602 18.6615H14.5493C16.8213 18.6615 18.6667 16.8162 18.6667 14.5442V9.45083C18.6667 7.17883 16.8213 5.3335 14.5493 5.3335ZM17.1787 14.5495C17.1787 16.0002 16 17.1842 14.544 17.1842H9.45068C8.00002 17.1842 6.81602 16.0055 6.81602 14.5495V9.45616C6.81602 8.0055 7.99468 6.8215 9.45068 6.8215H14.544C15.9947 6.8215 17.1787 8.00016 17.1787 9.45616V14.5495Z" fill="white"/>
<path d="M11.9999 8.5918C10.1226 8.5918 8.59192 10.1225 8.59192 11.9998C8.59192 13.8771 10.1226 15.4078 11.9999 15.4078C13.8773 15.4078 15.4079 13.8771 15.4079 11.9998C15.4079 10.1225 13.8773 8.5918 11.9999 8.5918ZM11.9999 14.0691C10.8586 14.0691 9.93059 13.1411 9.93059 11.9998C9.93059 10.8585 10.8586 9.93046 11.9999 9.93046C13.1413 9.93046 14.0693 10.8585 14.0693 11.9998C14.0693 13.1411 13.1413 14.0691 11.9999 14.0691Z" fill="white"/>
<path d="M15.6676 8.96576C15.9815 8.91486 16.1948 8.61907 16.1439 8.30509C16.093 7.99111 15.7972 7.77784 15.4832 7.82874C15.1693 7.87964 14.956 8.17543 15.0069 8.48941C15.0578 8.80339 15.3536 9.01666 15.6676 8.96576Z" fill="white"/>
<defs>
<linearGradient id="paint0_linear_160_91" x1="2.86288" y1="21.1371" x2="19.9162" y2="4.08379" gradientUnits="userSpaceOnUse">
<stop stop-color="#FEE411"/>
<stop offset="0.0518459" stop-color="#FEDB16"/>
<stop offset="0.1381" stop-color="#FEC125"/>
<stop offset="0.2481" stop-color="#FE983D"/>
<stop offset="0.3762" stop-color="#FE5F5E"/>
<stop offset="0.5" stop-color="#FE2181"/>
<stop offset="1" stop-color="#9000DC"/>
</linearGradient>
</defs>
</svg>
