<svg width="46" height="64" viewBox="0 0 46 64" fill="none" xmlns="http://www.w3.org/2000/svg">
<path d="M5.55251 61.5734C5.47632 61.403 5.41442 61.2266 5.36744 61.0459L0.0151978 60.0352C0.116306 62.2417 2.08852 64.0003 4.51615 64L8.13299 63.9992L8.09411 63.4733C7.54687 63.3901 7.02861 63.1732 6.58526 62.8418C6.14191 62.5104 5.78718 62.0747 5.55251 61.5734Z" fill="#F2994A"/>
<path d="M11.7228 58.9132L24.5933 57.5352C24.6229 57.5011 24.6569 57.4709 24.689 57.4385L19.2399 44.722C19.2052 44.74 19.1762 44.7647 19.1406 44.7811C18.8364 44.921 18.5093 45.0046 18.1753 45.0279L11.2902 58.1147C11.4318 58.3016 11.5535 58.5027 11.6534 58.7148C11.6837 58.7799 11.697 58.8476 11.7228 58.9132Z" fill="#F2994A"/>
<path d="M11.8629 60.9309C11.7499 61.4085 11.5331 61.8554 11.228 62.2398C10.9229 62.6242 10.537 62.9368 10.0975 63.1553L10.1597 63.9989L20.4885 63.9972L23.9151 59.6405L11.8629 60.9309Z" fill="#F2994A"/>
<path d="M41.4148 16.9383L36.5136 16.9392L36.5115 4.3824C36.5115 1.96571 34.7409 -0.000443383 32.5655 7.50005e-08L12.5992 0.00340143C10.4236 0.00340143 8.65422 1.97043 8.65467 4.38713L8.65689 16.9439L4.50849 16.9447C2.0164 16.9447 -0.00103434 18.7974 3.97855e-07 21.0863L0.00295065 39.1232C0.488712 39.1794 0.956466 39.3405 1.37386 39.5952C1.79126 39.85 2.14833 40.1924 2.42039 40.5987L15.3583 41.2472C15.61 40.5849 16.105 40.0436 16.7422 39.7338C17.3794 39.424 18.1108 39.3691 18.7871 39.5801C19.4634 39.7912 20.0338 40.2524 20.3817 40.8696C20.7296 41.4868 20.8288 42.2135 20.6592 42.9015L26.6629 56.9125C26.9188 56.9822 27.1585 57.1019 27.368 57.2646C27.5776 57.4273 27.7529 57.6297 27.8839 57.8604C28.0149 58.0911 28.0991 58.3454 28.1315 58.6087C28.1639 58.872 28.1439 59.1391 28.0728 59.3946C28.0016 59.6502 27.8806 59.8891 27.7167 60.0978C27.5529 60.3064 27.3494 60.4806 27.118 60.6103C26.8866 60.74 26.6319 60.8227 26.3684 60.8537C26.1049 60.8846 25.8379 60.8631 25.5828 60.7905L23.061 63.9967L41.4234 63.9936C43.9155 63.9936 45.9329 62.1407 45.9319 59.852L45.9254 21.079C45.9249 18.7896 43.9069 16.9373 41.4148 16.9383ZM11.6662 4.38743C11.6662 3.57901 12.1583 3.01566 12.5998 3.01566L32.5659 3.01226C33.0075 3.01226 33.4998 3.57531 33.4998 4.38373L33.5021 16.9404H29.7375L29.7387 23.2118C29.7393 23.4074 29.6818 23.5988 29.5734 23.7617C29.4651 23.9246 29.3108 24.0516 29.1301 24.1266C28.9494 24.2017 28.7506 24.2214 28.5587 24.1832C28.3668 24.145 28.1906 24.0508 28.0524 23.9123L21.0795 16.9419L11.6684 16.9433L11.6662 4.38743Z" fill="#F2994A"/>
<path d="M15.4281 43.4378C15.4025 43.3834 15.3913 43.3265 15.369 43.2712L2.97863 42.6504C2.93544 43.4603 2.60061 44.2273 2.03598 44.8096L7.8469 56.8641C8.43506 56.7305 9.04839 56.7583 9.62207 56.9445L16.2113 44.4204C15.8782 44.1574 15.6102 43.8212 15.4281 43.4378Z" fill="#F2994A"/>
<path d="M6.09851 57.8904L0.253141 45.7642C0.170066 45.7799 0.0867013 45.7873 0.003479 45.7968L0.00554508 57.9763L5.43466 59.0017C5.58213 58.5919 5.80756 58.2146 6.09851 57.8904Z" fill="#F2994A"/>
</svg>
