<svg width="24" height="24" viewBox="0 0 24 24" fill="none" xmlns="http://www.w3.org/2000/svg">
<path d="M12 24C18.6274 24 24 18.6274 24 12C24 5.37258 18.6274 0 12 0C5.37258 0 0 5.37258 0 12C0 18.6274 5.37258 24 12 24Z" fill="#03A9F4"/>
<path d="M19.7731 7.17902C19.1885 7.43438 18.57 7.60402 17.9368 7.68271C18.6043 7.28692 19.1032 6.65989 19.3389 5.9206C18.7142 6.2914 18.0307 6.55253 17.3179 6.69271C16.8811 6.22558 16.3138 5.9007 15.6899 5.76032C15.066 5.61995 14.4142 5.67058 13.8194 5.90562C13.2247 6.14067 12.7144 6.54926 12.355 7.07824C11.9956 7.60723 11.8037 8.23212 11.8042 8.87165C11.802 9.11576 11.8268 9.35936 11.8784 9.59797C10.6105 9.53569 9.36993 9.20663 8.23783 8.63228C7.10572 8.05793 6.10752 7.25121 5.30841 6.26481C4.89766 6.96651 4.77041 7.79859 4.95266 8.59098C5.13491 9.38336 5.6129 10.0762 6.28894 10.528C5.78434 10.5144 5.29043 10.3795 4.84894 10.1348V10.1695C4.85036 10.9051 5.10494 11.6177 5.5699 12.1876C6.03486 12.7575 6.68184 13.15 7.40209 13.299C7.12952 13.3706 6.84864 13.4057 6.56683 13.4032C6.36391 13.407 6.16118 13.389 5.96209 13.3495C6.16844 13.9821 6.56571 14.5352 7.09926 14.9327C7.6328 15.3303 8.27641 15.5528 8.94157 15.5695C7.81439 16.4506 6.42484 16.9291 4.9942 16.929C4.73929 16.9312 4.48452 16.9164 4.23157 16.8848C5.69031 17.8253 7.39066 18.3223 9.1263 18.3153C14.9921 18.3153 18.1989 13.4569 18.1989 9.24587C18.1989 9.10534 18.1989 8.96955 18.1879 8.83376C18.8124 8.38303 19.3496 7.8223 19.7731 7.17902Z" fill="white"/>
</svg>
